<?xml version="1.0" standalone="no"?>
<!DOCTYPE svg PUBLIC "-//W3C//DTD SVG 1.1//EN" "http://www.w3.org/Graphics/SVG/1.1/DTD/svg11.dtd" >
<svg xmlns="http://www.w3.org/2000/svg" xmlns:xlink="http://www.w3.org/1999/xlink" version="1.1">
<metadata>
Created by FontForge 20161116 at Tue Nov  3 16:48:22 2015
 By Jimmy Wärting
</metadata>
<defs>
<font id="bell-icon" horiz-adv-x="1024" >
  <font-face 
    font-family="bell-icon"
    font-weight="400"
    font-stretch="normal"
    units-per-em="1024"
    panose-1="0 0 0 0 0 0 0 0 0 0"
    ascent="960"
    descent="-64"
    bbox="-2 -66 1787 961"
    underline-thickness="0"
    underline-position="0"
    unicode-range="U+0001-FFFD"
  />
<missing-glyph 
 />
    <glyph glyph-name=".notdef" unicode="&#xfffd;" 
 />
    <glyph glyph-name="glyph1" horiz-adv-x="0" 
d="M0 0v0v0v0z" />
    <glyph glyph-name="glyph1" horiz-adv-x="0" 
d="M0 0v0v0v0z" />
    <glyph glyph-name="uni0001" horiz-adv-x="0" 
d="M0 0v0v0v0z" />
    <glyph glyph-name="space" unicode=" " horiz-adv-x="512" 
d="M0 0v0v0v0z" />
    <glyph glyph-name="uniE007" unicode="&#xe007;" 
d="M966 506h-396v396q0 24 -17 41t-41 17t-41 -17t-17 -41v-398h-396q-24 1 -41 -15.5t-17 -40.5t17 -41t41 -17h398v-398q0 -24 17 -41t41 -17t40.5 17t16.5 41v398h399q24 0 40.5 17t16.5 41q-2 24 -19.5 41t-41.5 17v0z" />
    <glyph glyph-name="uniE012" unicode="&#xe012;" 
d="M269 -64q-9 0 -16 3.5t-13 9.5q-12 12 -12 29.5t12 29.5l440 440l-442 440q-12 12 -12 29.5t12 29.5t30 12t30 -12l499 -499l-499 -499q-6 -6 -14 -9.5t-15 -3.5v0z" />
    <glyph glyph-name="uniE600" unicode="&#xe600;" horiz-adv-x="1788" 
d="M1328 370q-7 33 -20.5 62t-32.5 54q-39 53 -103.5 83.5t-152.5 30.5q-68 0 -122.5 -21.5t-95.5 -56.5t-68 -80.5t-39 -94.5q-21 69 -75 114.5t-117 64.5q47 35 71.5 83t24.5 105q0 51 -20 97t-56 77q-54 44 -127 58t-161 14h-234v-1008h100h100h87t83 2q63 2 116.5 19
t94.5 45.5t69.5 68t42.5 87.5q9 -43 27 -77.5t42 -61.5q49 -54 116.5 -77.5t139.5 -23.5q88 0 152.5 23.5t107.5 63.5l-83 97q-31 -24 -71 -36.5t-86 -12.5q-88 0 -130 46.5t-46 100.5h466v-264h173v1003h-173v-585v0zM178 824h48q34 0 62 -4t48 -12q40 -16 58.5 -45.5
t18.5 -68.5q0 -32 -19.5 -74t-89.5 -57q-12 -2 -29 -3.5t-40 -1.5h-56l-1 266v0zM374 99q-16 -2 -34.5 -3.5t-35.5 -1.5h-126v328h113q27 0 54 -2t45 -7q59 -16 92 -56t33 -96q0 -59 -33.5 -104t-107.5 -58v0v0zM869 342q12 56 50.5 91.5t98.5 35.5t98 -34t49 -93h-296v0z
M1618 955h169v-1003h-169v1003v0z" />
    <glyph glyph-name="uniE601" unicode="&#xe601;" 
d="M230 678l282 282l282 -282h-564v0zM794 218l-282 -282l-282 282h564v0z" />
    <glyph glyph-name="uniE602" unicode="&#xe602;" 
d="M371 43l-371 371l155 157l216 -216l498 498l155 -157z" />
    <glyph glyph-name="uniE603" unicode="&#xe603;" 
d="M371 82l-355 353q-17 17 -17 40t17 40t40 17t40 -17l274 -273l556 556q17 17 40.5 17t39.5 -17q17 -16 17 -39.5t-17 -40.5l-635 -636v0z" />
    <glyph glyph-name="uniE604" unicode="&#xe604;" 
d="M512 290q-22 0 -36.5 14.5t-14.5 36.5v568q0 21 14.5 36t36.5 15t36.5 -15t14.5 -36v-570q0 -20 -14.5 -34.5t-36.5 -14.5v0zM512 -64q-14 0 -29 6t-25 16q-11 11 -17 25t-6 30q0 15 6 29t17 25q21 22 53.5 22t53.5 -22q11 -11 16.5 -25t5.5 -29t-5.5 -29.5t-16.5 -25.5
q-10 -10 -24.5 -16t-28.5 -6v0z" />
    <glyph glyph-name="uniE605" unicode="&#xe605;" 
d="M218 378l-20 126l-19 -126h-40l27 144h64l26 -144h-38v0zM443 378l-3 144h-59l-18 -108h-1l-18 108h-59l-3 -144h38l2 124l22 -124h37l22 124l2 -124h38v0zM579 405q1 8 0.5 14t-0.5 10q-5 21 -32.5 31.5t-31.5 22.5v5v3q1 5 4 7.5t9 2.5t9.5 -3.5t3.5 -9.5v-10h35v10
q0 7 -2.5 13t-7.5 11q-6 6 -15.5 8.5t-24.5 2.5t-30.5 -5.5t-18.5 -26.5q-1 -5 -1 -9.5t1 -9.5q5 -22 31.5 -32.5t32.5 -23.5q1 -2 1 -5t-1 -5q-1 -4 -4.5 -6.5t-8.5 -2.5q-6 0 -10 3.5t-4 9.5v14h-39v-11q0 -21 13.5 -31.5t37.5 -10.5q16 1 33 7t20 27v0zM714 520h-37v-106
v-2.5v-1.5q0 -2 -3 -6t-10 -4q-8 0 -10.5 4t-2.5 6v2v2v106h-37v-102v-6v-4q2 -18 14.5 -26.5t35.5 -8.5t35.5 9t14.5 26v4v6v102v0zM872 520h-37l2 -109l-32 109h-53v-142h35l-1 113l35 -113h51v142v0zM66 525q-17 0 -29.5 -5.5t-18.5 -17.5v0q-2 -2 -3 -4.5t-1 -4.5
q-1 -5 -1 -10t1 -9q5 -22 32.5 -32.5t31.5 -23.5q2 -3 2 -6v-6q-1 -4 -4.5 -6.5t-8.5 -2.5q-6 0 -10 3.5t-4 9.5v14h-40v-11q0 -18 12 -30t41 -12q20 0 34 8t17 26q1 8 0.5 14t-0.5 10q-5 21 -33.5 32.5t-30.5 23.5v3.5v4.5q0 2 3 4t8 2q6 0 9.5 -3.5t3.5 -9.5v-9h37v11
q0 7 -2.5 13t-7.5 11q-6 6 -15.5 8.5t-21.5 2.5l-1 2v0zM960 374q14 0 26 4t19 14q2 4 3.5 8.5t2.5 9.5v5v4v39h-51v-23h14v-19v-2.5v-2.5t-2 -5t-12 -4t-12 4.5l-2 4.5v2.5v2.5v66v3.5v2.5q0 2 3 6t11 4t10.5 -4t3.5 -6v-3v-2v0v-8h37v5v3.5v6.5q-2 21 -18 28t-33 7
q-20 0 -34.5 -8t-16.5 -27v-5v-5v-59v-4.5v-5.5q2 -20 17 -28.5t34 -8.5v0z" />
    <glyph glyph-name="uniE606" unicode="&#xe606;" 
d="M966 390h-908q-24 0 -41 17t-17 41t17 41t41 17h910q24 0 41 -17t17 -41t-18 -41t-42 -17v0z" />
    <glyph glyph-name="uniE607" unicode="&#xe607;" 
d="M512 678q-46 0 -86 -17t-70 -47t-47.5 -70.5t-17.5 -85.5v-69q0 -21 14.5 -34.5t33.5 -13.5t33.5 14.5t14.5 33.5v69q0 12 2.5 23t5.5 21v-448q0 -22 16 -38t39 -16q22 0 38 16t16 38v216h14v-216q0 -22 16 -38t39 -16t38.5 16t15.5 38v448q5 -10 6.5 -22t1.5 -22v-80h2
q3 -16 16 -26.5t30 -10.5t30 10.5t17 26.5h1v80q1 45 -16 85.5t-47 70.5t-70 47t-86 17v0zM512 686q43 0 73.5 30.5t30.5 73.5q0 44 -30.5 74t-73.5 30t-73.5 -30t-30.5 -74q0 -43 30.5 -73.5t73.5 -30.5v0z" />
    <glyph glyph-name="uniE608" unicode="&#xe608;" 
d="M451 590l231 -142l-231 -142v284zM512 -64q-106 0 -199 40.5t-162.5 110t-110 162.5t-40.5 199t40.5 199t110 162.5t162.5 110t199 40.5t199 -40.5t162.5 -110t110 -162.5t40.5 -199t-40.5 -199t-110 -162.5t-162.5 -110t-199 -40.5v0zM512 888q-91 0 -171 -34.5
t-140 -94t-94.5 -140t-34.5 -171.5t35 -171.5t94.5 -140t139.5 -94t171 -34.5t171 34.5t139.5 94t94.5 140t35 171.5t-34.5 171t-94 140t-140 94.5t-171.5 34.5v0z" />
    <glyph glyph-name="uniE609" unicode="&#xe609;" 
d="M875 811q-75 75 -170 112.5t-193 37.5t-193 -37.5t-170 -112.5q-76 -75 -113.5 -169.5t-37.5 -193t38 -193t113 -169.5t169.5 -112.5t193 -37.5t193 37.5t169.5 112.5t113 169.5t38 192.5t-37.5 193t-112.5 170v0zM443 251q-6 -6 -13 -8.5t-16 -2.5q-8 0 -15 2.5t-13 8.5
l-141 141l56 56l112 -112l307 307l56 -56l-333 -336v0z" />
    <glyph glyph-name="uniE60A" unicode="&#xe60a;" 
d="M874 810q-75 75 -169.5 112.5t-192.5 37.5t-192.5 -37.5t-169.5 -112.5t-112.5 -169.5t-37.5 -192.5t37.5 -192.5t112.5 -169.5t169.5 -112.5t192.5 -37.5t192.5 37.5t169.5 112.5t112.5 169.5t37.5 192.5t-37.5 192.5t-112.5 169.5v0zM472 728q0 17 11.5 28.5t28.5 11.5
t28.5 -11.5t11.5 -28.5v-280q0 -17 -11.5 -28.5t-28.5 -11.5t-28.5 11.5t-11.5 28.5v280v0zM546 192q-8 -7 -16 -10.5t-18 -3.5t-19 3.5t-15 10.5q-7 7 -10.5 15.5t-3.5 18.5q0 9 3.5 18t10.5 15q14 13 34.5 13t34.5 -13q7 -7 11 -15.5t4 -17.5q-2 -10 -5.5 -19t-10.5 -15v0
z" />
    <glyph glyph-name="uniE60B" unicode="&#xe60b;" 
d="M694 0q-9 0 -18.5 3.5t-16.5 10.5l-201 191h-407q-21 0 -36 14.5t-15 36.5v587q0 22 15 37.5t36 15.5h920q23 0 38 -15.5t15 -37.5v-587q0 -22 -15 -36.5t-36 -14.5h-227v-152q0 -16 -9 -29t-23 -19q-4 -3 -9.5 -4t-10.5 -1v0zM104 309h374q10 0 19 -3.5t17 -11.5
l129 -121v83q0 22 15 36.5t36 14.5h226v485h-816v-483v0z" />
    <glyph glyph-name="uniE60C" unicode="&#xe60c;" 
d="M875 810q-75 75 -170 112.5t-193 37.5t-193 -37.5t-170 -112.5q-76 -75 -113.5 -169.5t-37.5 -193t38 -193t113 -169.5t169.5 -112.5t193 -37.5t193 37.5t169.5 112.5t113 169.5t38 192.5t-37.5 192.5t-112.5 170.5v0zM725 315q17 -17 17 -40t-17 -38q-9 -9 -19 -12.5
t-21 -3.5t-21.5 3.5t-18.5 12.5l-128 128l-138 -138q-8 -8 -18.5 -12t-21.5 -4t-21 4t-19 12q-17 17 -17 40t17 39l138 137l-138 138q-17 17 -17 40t17 38q17 17 40 17t39 -17l137 -137l128 128q17 16 40 16t39 -16q16 -17 16 -40.5t-16 -39.5l-128 -128l131 -127v0z" />
    <glyph glyph-name="uniE60D" unicode="&#xe60d;" 
d="M512 960q-106 0 -199.5 -40t-163 -109.5t-109.5 -163t-40 -199.5t40 -199.5t109.5 -163t163 -109.5t199.5 -40t199.5 40t163 109.5t109.5 163t40 199.5t-40 199.5t-109.5 163t-163 109.5t-199.5 40v0zM584 221q0 -30 -21 -51t-51 -21t-51 21t-21 51v243q0 30 21 51t51 21
t51 -21t21 -51v-243v0zM584 669q0 -30 -21 -51t-51 -21t-51 21t-21 51v8q0 30 21 51t51 21t51 -21t21 -51v-8v0z" />
    <glyph glyph-name="uniE60E" unicode="&#xe60e;" 
d="M128 382q-67 66 -97.5 136t-30.5 133q0 55 17.5 100.5t50 77.5t78 49.5t100.5 17.5q104 0 154.5 -43.5t111.5 -113.5q61 70 111.5 113.5t154.5 43.5q55 0 100.5 -17.5t78 -49.5t50 -77.5t17.5 -100.5q0 -65 -30.5 -134.5t-97.5 -134.5l-384 -382l-384 382v0z" />
    <glyph glyph-name="uniE60F" unicode="&#xe60f;" 
d="M512 912l150 -306l336 -49l-243 -237l58 -336l-301 158l-301 -158l58 336l-243 237l336 49zM824 -30l-312 164l-312 -164l59 347l-251 246l349 51l155 316l155 -316l349 -51l-251 -246l59 -347v0zM42 552l235 -229l-56 -323l291 152l291 -152l-56 323l235 229l-324 46
l-146 295l-146 -295l-324 -46v0z" />
    <glyph glyph-name="uniE610" unicode="&#xe610;" 
d="M875 810q-36 36 -78 63.5t-88 46.5t-95 28.5t-100 9.5t-100.5 -9.5t-96 -28.5t-88.5 -46.5t-79 -63.5q-36 -36 -64 -78t-47 -87.5t-29 -94.5t-10 -100q0 -52 10 -101.5t29 -95.5t47 -88t64 -79q36 -36 78 -64t88 -47t95.5 -29t100.5 -10t100.5 10t95.5 28.5t88 46.5
t78 64t64 77.5t47 87.5t29 95.5t10 100.5q0 52 -9.5 101.5t-28.5 95.5t-47 88t-64 79v0zM816 142q-30 -30 -65 -53.5t-73.5 -39.5t-80.5 -24.5t-85 -8.5t-85 8.5t-80.5 24.5t-74 39.5t-66.5 53.5q-30 32 -53.5 67.5t-39.5 74.5t-24.5 80.5t-8.5 85.5q0 43 8.5 84.5t24.5 80
t39.5 73.5t53.5 66q31 30 66.5 53.5t74 39.5t80.5 24.5t85 8.5t85 -8.5t80.5 -24.5t74 -39.5t66.5 -53.5q30 -32 53.5 -67t39.5 -74t24.5 -80.5t8.5 -84.5t-8.5 -85t-24.5 -80.5t-40 -74t-55 -66.5v0zM722 650l56 -56l-333 -336q-6 -6 -13.5 -9t-15.5 -3t-15.5 3t-13.5 9
l-141 140l56 56l112 -112l308 308v0z" />
    <glyph glyph-name="uniE611" unicode="&#xe611;" 
d="M278 639v-552h-184v552h184v0zM290 810q0 -20 -7 -37t-21 -31t-33 -20.5t-43 -6.5h-1q-23 0 -41 6.5t-32 20.5t-21 31t-7 37q0 21 7 38t21 30q15 14 33.5 20.5t41.5 6.5q24 0 42.5 -6.5t32.5 -20.5q14 -13 21 -30t7 -38v0v0zM940 403v-316h-183v295q0 30 -5.5 52.5
t-17.5 39.5q-11 17 -28.5 25t-41.5 8q-18 0 -32.5 -4.5t-26.5 -14.5t-21 -21.5t-14 -26.5q-4 -8 -5.5 -19.5t-1.5 -25.5v-308h-183q0 55 0.5 105.5t0.5 95.5v85v74v111t-1 55v26h183v-80h-1q6 9 11.5 17t11.5 14q6 7 14 14t18 15q9 8 21.5 14t26.5 10q14 5 30 7t34 2
q48 0 86 -16t67 -47q29 -32 43.5 -78t14.5 -108v0v0z" />
    <glyph glyph-name="uniE612" unicode="&#xe612;" 
d="M915 654q5 -109 -32.5 -219.5t-113.5 -199.5t-188.5 -144.5t-257.5 -55.5q-44 0 -86 6.5t-82.5 18.5t-78 29t-71.5 39q41 -5 82 -1.5t80.5 14.5t76.5 29.5t70 43.5q-69 2 -122 42.5t-72 101.5q24 -4 48 -3t46 7q-76 16 -123 76t-45 132q22 -12 46 -19t49 -7
q-35 23 -57 56.5t-31 71t-3.5 76.5t25.5 74q39 -47 86.5 -85.5t102 -66.5t115 -45t125.5 -20q-11 48 0 94.5t39.5 82t71 57.5t92.5 22q45 0 84 -18t68 -48q36 7 69 20t64 31q-12 -36 -35.5 -66t-55.5 -49q31 4 61 12t59 20q-23 -32 -49.5 -59t-56.5 -50v0z" />
    <glyph glyph-name="uniE613" unicode="&#xe613;" 
d="M628 249v-120q0 -20 -5.5 -29.5t-16.5 -9.5q-7 0 -13.5 3.5t-12.5 9.5v172q6 6 12.5 9t13.5 3q11 0 16.5 -9.5t5.5 -28.5v0zM821 249v-27h-51v27q0 19 6.5 28.5t18.5 9.5q13 0 19.5 -9.5t6.5 -28.5v0zM269 373h61v54h-178v-54h60v-325h57v325v0zM434 48h51v282h-51v-216
q-9 -12 -17 -18t-16 -6q-5 0 -8 3t-4 9q0 1 -0.5 6t-0.5 14v208h-50v-223q0 -14 1 -24.5t3 -17.5q4 -10 12 -15.5t21 -5.5q14 0 28.5 9t30.5 26v-31v0zM679 133v112q0 21 -1.5 35t-3.5 22q-5 16 -15 24t-26 8q-14 0 -27.5 -8t-25.5 -23v124h-51v-379h51v27q13 -15 26 -23
t27 -8q16 0 26 8t15 23q2 8 3.5 22.5t1.5 35.5v0v0zM872 138v8h-52q0 -15 -0.5 -23.5t-0.5 -11.5q-2 -10 -8 -15.5t-15 -5.5q-13 0 -19.5 10t-6.5 30v49h102v59q0 23 -4 39.5t-11 26.5q-12 15 -27 22.5t-34 7.5t-34.5 -7.5t-26.5 -22.5q-8 -10 -12 -26.5t-4 -39.5v-99
q0 -22 4 -38.5t12 -27.5q12 -15 27 -22t35 -7q21 0 36.5 7.5t25.5 22.5q5 8 8 15.5t4 15.5q0 3 0.5 11t0.5 22v0v0zM525 660v120q0 20 -6.5 29.5t-18.5 9.5t-18.5 -9.5t-6.5 -29.5v-120q0 -20 6.5 -30t18.5 -10t18.5 10t6.5 30v0zM935 231q0 -67 -3.5 -117t-10.5 -83
q-4 -17 -12.5 -31t-21.5 -26q-12 -11 -26.5 -17.5t-31.5 -8.5q-52 -6 -131.5 -9t-185.5 -3t-185.5 3t-131.5 9q-17 2 -31.5 8.5t-27.5 17.5q-12 12 -20.5 26t-12.5 31q-7 32 -11 82t-4 118q0 67 4 117t11 83q4 17 12.5 31t20.5 25q13 12 28 18.5t31 8.5q53 6 132 9t185 3
t185.5 -3t131.5 -9q17 -2 31.5 -8.5t27.5 -17.5q12 -12 20.5 -26t12.5 -31q7 -32 10.5 -82t3.5 -118v0v0zM365 960h58l-69 -228v-155h-57v155q-4 21 -12.5 51.5t-22.5 69.5q-10 30 -19.5 56.5t-17.5 50.5h61l40 -150l39 150v0zM577 770v-100q0 -23 -4 -40t-12 -28
q-11 -14 -26 -21.5t-35 -7.5q-19 0 -34 7.5t-26 21.5q-8 11 -12 28t-4 40v100q0 23 4 39.5t12 27.5q11 14 26 21.5t34 7.5q20 0 35 -7.5t26 -21.5q8 -11 12 -27.5t4 -39.5v0v0zM768 862v-285h-52v32q-15 -18 -30 -27t-29 -9q-13 0 -21.5 5.5t-12.5 15.5q-2 7 -3 18t-1 25
v225h52v-209v-15v-5q1 -7 4 -10t8 -3q8 0 16 6t17 19v217h52v0z" />
    <glyph glyph-name="uniE614" unicode="&#xe614;" horiz-adv-x="952" 
d="M424 469q0 -11 4.5 -21.5t14.5 -21.5q9 -10 21 -20.5t25 -20.5q14 -10 27.5 -21t27.5 -23q13 -12 24.5 -27.5t21.5 -34.5q10 -20 14.5 -41t4.5 -45q0 -27 -7 -53t-22 -51q-21 -36 -53 -63t-73 -45q-42 -17 -87 -25.5t-92 -8.5q-40 0 -77 6t-72 19q-34 12 -60 33t-43 50
q-11 18 -16.5 37.5t-5.5 40.5q0 25 6.5 47.5t20.5 43.5q13 20 31 37.5t40 31.5q39 24 100 39t143 21q-10 12 -17 23.5t-12 20.5q-4 10 -6.5 21t-2.5 23q0 11 3 24t10 27q-14 -1 -24.5 -1.5t-16.5 -0.5q-45 0 -82.5 14.5t-67.5 43.5q-31 29 -46 65.5t-15 81.5q0 24 5.5 48
t15.5 47q11 24 26 43.5t34 35.5q23 20 50.5 34.5t59.5 24.5q31 10 64 14.5t66 4.5h252l-83 -53h-79q22 -19 39 -39t28 -41q12 -21 17.5 -45t5.5 -51q0 -21 -3.5 -40.5t-11.5 -37.5q-7 -17 -16 -31t-19 -24q-11 -11 -21.5 -21t-20.5 -19q-11 -8 -19.5 -17.5t-16.5 -19.5
q-7 -9 -10.5 -19t-3.5 -20v0v0zM336 526q11 0 23 2.5t24 7.5t22 11.5t17 14.5q16 17 24 41t8 55q0 17 -2.5 36t-7.5 39t-12.5 39.5t-16.5 38.5q-10 19 -22.5 34.5t-28.5 27.5t-33.5 18.5t-36.5 6.5q-13 0 -25.5 -3t-24.5 -9t-22 -14t-17 -18q-14 -17 -21.5 -41t-7.5 -54
q0 -14 1.5 -29t4.5 -30q3 -16 8 -31.5t11 -30.5q7 -15 14.5 -29t17.5 -27q9 -12 20 -22t25 -18q13 -8 27.5 -12t30.5 -4v0v0zM337 2q17 0 34 2t33 5q16 4 31 10t28 14q14 8 25 19t19 25q9 14 13 30.5t4 34.5q0 8 -1 15.5t-3 14.5t-4.5 13.5t-4.5 11.5t-6 11.5t-10 13.5
t-10.5 12t-7.5 9l-8.5 8.5t-14.5 12.5t-14.5 11t-7.5 6t-8.5 6.5t-16.5 11.5t-15.5 11t-6.5 5q-4 0 -11.5 0.5t-17.5 0.5q-15 0 -31 -1t-32 -3q-15 -2 -31.5 -6t-32.5 -9q-17 -6 -31.5 -13t-27.5 -15q-12 -9 -22.5 -20t-18.5 -25t-12 -30t-4 -33q0 -21 5.5 -39.5t15.5 -34.5
q11 -17 24.5 -29.5t30.5 -20.5q17 -9 35 -15.5t37 -11.5q18 -4 37.5 -6t38.5 -2v0v0zM824 528h128v-65h-128v-131h-63v131h-128v65h128v131h63v-131v0z" />
    <glyph glyph-name="uniE615" unicode="&#xe615;" 
d="M1024 29l-277 277q33 48 51 105.5t18 119.5q0 85 -32 159t-87.5 129.5t-129.5 87.5t-159 32t-159 -32t-129.5 -87.5t-87.5 -129.5t-32 -159q0 -84 32 -158.5t87.5 -130t129.5 -87.5t159 -32q78 0 148 28t124 76l270 -270l74 72v0zM102 531q0 63 24.5 118.5t66 97.5t97 66
t118.5 24t118.5 -24t97 -66t66 -97.5t24.5 -118.5t-24.5 -118.5t-66 -97t-97 -65.5t-118.5 -24t-118.5 24t-97 65.5t-66 97t-24.5 118.5v0z" />
    <glyph glyph-name="uniE616" unicode="&#xe616;" 
d="M983 -63h-942q-17 0 -29 11.5t-12 28.5v13.5v12.5q0 46 2 83t17 68q16 36 49.5 59t87.5 35l9 2q33 8 64.5 16t56.5 17q28 11 39 20.5t14 15.5q4 9 0 21.5t-9 22.5q-40 73 -63 140.5t-29 129.5q-3 29 -2 56.5t6 53.5q5 25 13.5 48t20.5 43q36 60 97.5 92.5t138.5 32.5
q76 0 137.5 -32t97.5 -91q24 -41 34 -91.5t4 -108.5q-6 -62 -28.5 -130.5t-62.5 -142.5q-7 -14 -9.5 -25.5t0.5 -18.5q3 -6 14.5 -15.5t39.5 -20.5q25 -10 57 -18t67 -16l5 -1q54 -12 87.5 -35t49.5 -59q15 -31 17 -68t2 -83v-12.5v-13.5q0 -17 -12 -28.5t-29 -11.5v0z
M81 18h862q0 33 -1.5 59t-9.5 43q-6 13 -22 26t-60 23l-6 2q-36 8 -70.5 16.5t-63.5 20.5q-25 9 -54 27t-44 50q-12 26 -9 55t20 61q35 67 55.5 128t26.5 114q4 46 -3 84t-25 67q-24 41 -66.5 62.5t-98.5 21.5t-99 -22t-67 -63q-18 -30 -25 -68.5t-3 -83.5q6 -54 26.5 -114
t56.5 -125q17 -33 20 -62t-8 -54q-23 -52 -88 -74.5t-142 -40.5l-9 -1q-44 -11 -60 -24t-22 -25q-8 -18 -9.5 -44t-1.5 -59v0z" />
    <glyph glyph-name="uniE617" unicode="&#xe617;" 
d="M1024 674h-778l-61 249h-185v-60h138l169 -693q-28 -12 -45.5 -37.5t-17.5 -57.5q0 -42 30.5 -72t72.5 -30q43 0 73 30t30 72q0 11 -2.5 21.5t-6.5 19.5l214 1q-4 -10 -6.5 -20.5t-2.5 -21.5q0 -42 30 -72t73 -30q42 0 72.5 30t30.5 72q0 43 -30.5 73t-72.5 30h-1.5h-1.5
v0l-378 -1l-12 47l504 -1l164 451v0zM389 75q0 -17 -12 -29.5t-30 -12.5q-17 0 -29.5 12.5t-12.5 29.5q0 15 9.5 26.5t24.5 14.5h17q14 -3 23.5 -14.5t9.5 -26.5v0zM791 75q0 -17 -12.5 -29.5t-29.5 -12.5t-29.5 12.5t-12.5 29.5q0 18 12.5 30t29.5 12t29.5 -12t12.5 -30v0z
M341 284l-80 329h676l-119 -329h-477v0z" />
    <glyph glyph-name="uniE618" unicode="&#xe618;" 
d="M966 390h-908q-24 0 -41 17t-17 41t17 41t41 17h910q24 0 41 -17t17 -41t-18 -41t-42 -17v0zM966 99h-908q-24 0 -41 17t-17 41t17 40.5t41 16.5h910q24 0 41 -16.5t17 -40.5t-18 -41t-42 -17v0zM966 683h-908q-24 0 -41 17t-17 41t17 40.5t41 16.5h910q24 0 41 -16.5
t17 -40.5t-18 -41t-42 -17v0z" />
    <glyph glyph-name="uniE619" unicode="&#xe619;" horiz-adv-x="586" 
d="M548 953v-151h-90q-49 0 -66 -20q-17 -21 -17 -62v-108h167l-22 -169h-145v-434h-175v434h-146v169h146v125q0 106 59 164q60 59 159 59q84 0 130 -7v0z" />
    <glyph glyph-name="uniE61A" unicode="&#xe61a;" 
d="M262 947v-998l500 499z" />
    <glyph glyph-name="uniE61B" unicode="&#xe61b;" 
d="M984 647q-20 46 -47.5 87t-62.5 76t-76 62.5t-87 47.5q-47 20 -97 30t-102 10t-102 -10t-97 -30q-46 -20 -87 -47.5t-76 -62.5t-62.5 -76t-47.5 -87q-20 -47 -30 -97t-10 -102t10 -102t30 -97q20 -46 47.5 -87t62.5 -76t76 -62.5t87 -47.5q47 -20 97 -30t102 -10t102 10
t97 30q46 20 87 47.5t76 62.5t62.5 76t47.5 87q20 47 30 97t10 102t-10 102t-30 97v0zM512 47q-83 0 -156 31.5t-127.5 86t-86 127.5t-31.5 156t31.5 156t86 127.5t127.5 86t156 31.5t156 -31.5t127.5 -86t86 -127.5t31.5 -156t-31.5 -156t-86 -127.5t-127.5 -86t-156 -31.5
v0zM554 735h-111v-275v0v-112h329v111h-217z" />
    <glyph glyph-name="uniE61C" unicode="&#xe61c;" 
d="M927 -64h-830v609l415 415l415 -415v-609v0zM183 22h658v487l-329 329l-329 -329v-487v0z" />
    <glyph glyph-name="uniE61D" unicode="&#xe61d;" 
d="M279 -64q-15 0 -29.5 6t-26.5 17q-24 24 -24 57.5t24 56.5l375 375l-375 375q-24 23 -24 56.5t24 56.5q23 24 56.5 24t56.5 -23l489 -489l-489 -488q-12 -12 -26.5 -18t-30.5 -6v0z" />
    <glyph glyph-name="uniE61E" unicode="&#xe61e;" 
d="M886 309h-200l-174 -173l-174 173h-200l374 -373zM138 587h200l174 173l174 -173h200l-374 373z" />
    <glyph glyph-name="uniE61F" unicode="&#xe61f;" 
d="M874 551q-5 -5 -11.5 -7.5t-14.5 -2.5t-14.5 2.5t-11.5 7.5l-51 52l-414 -414l51 -51q6 -6 8.5 -12t2.5 -14t-2.5 -14.5t-7.5 -11.5q-6 -5 -12.5 -8t-13.5 -3h-207q-8 0 -14.5 3t-11.5 8t-8 11.5t-3 14.5v207q0 7 3 13.5t8 12.5q5 5 11.5 7.5t14.5 2.5q7 0 13.5 -2.5
t12.5 -7.5l51 -52l414 414l-52 51q-5 6 -7.5 12.5t-2.5 13.5q0 8 2.5 14.5t7.5 11.5q6 5 12.5 7.5t13.5 2.5h207q8 0 14.5 -2.5t11.5 -7.5t8 -11.5t3 -14.5v-207q0 -7 -3 -13.5t-8 -12.5v0v0zM907 -64h-790q-48 0 -82.5 34t-34.5 83v790q0 48 34.5 82.5t82.5 34.5h790
q49 0 83 -34.5t34 -82.5v-790q0 -49 -34 -83t-83 -34v0zM117 889q-19 0 -32.5 -13.5t-13.5 -32.5v-790q0 -19 13.5 -32.5t32.5 -13.5h790q19 0 32.5 13.5t13.5 32.5v790q0 19 -13.5 32.5t-32.5 13.5h-790v0z" />
    <glyph glyph-name="uniE620" unicode="&#xe620;" 
d="M512 960q-70 0 -139.5 -25.5t-125.5 -74.5t-90.5 -120.5t-34.5 -162.5q0 -106 42.5 -197.5t103.5 -170.5t128 -146.5t116 -126.5q49 59 116 126.5t128 146.5t103.5 170.5t42.5 196.5q0 91 -35.5 162.5t-91.5 120.5t-125.5 75t-137.5 26v0zM512 363q-74 0 -126.5 55
t-52.5 132q0 78 52.5 132.5t126.5 54.5t126.5 -54.5t52.5 -132.5q0 -77 -52.5 -132t-126.5 -55v0z" />
    <glyph glyph-name="uniE621" unicode="&#xe621;" 
d="M951 137v439q-9 -10 -19 -19.5t-20 -18.5q-77 -59 -138 -107t-106 -86q-15 -12 -26.5 -21.5t-20.5 -16.5q-10 -7 -22 -14t-28 -14q-15 -7 -30 -10.5t-28 -3.5h-1q-14 0 -28.5 3.5t-30.5 10.5t-28 14t-21 14q-10 7 -21.5 16.5t-26.5 21.5q-45 38 -106 86t-137 107
q-11 9 -21 18.5t-19 19.5v-439q0 -4 1.5 -7t4.5 -6q2 -3 5.5 -4t7.5 -1h841q3 0 6.5 1t6.5 4q2 3 3.5 6t1.5 7v0v0zM951 738v14v1.5v5.5q-1 4 -1 5.5t-1 1.5t-1.5 1.5t-1.5 3.5q-1 3 -2.5 4t-2.5 1q-2 -1 -4 -0.5t-4 1.5h-842q-3 0 -6.5 -1.5t-6.5 -3.5q-2 -3 -3.5 -6.5
t-1.5 -6.5q0 -48 21 -88.5t63 -74.5q55 -43 112.5 -88.5t116.5 -92.5q2 -1 7 -5.5t13 -11.5t15 -12t11 -9q5 -4 11.5 -8.5t14.5 -9.5t15 -9t14 -7q6 -2 12.5 -3.5t11.5 -1.5h1q6 0 12 1.5t13 3.5q7 3 14 7t15 9t14.5 9.5t10.5 8.5q5 4 11.5 9t15.5 12q8 7 13 11.5t7 5.5
q59 47 116.5 92.5t112.5 88.5q15 13 29.5 29.5t27.5 36.5q14 21 20.5 40t6.5 36v0v0zM1024 759v-622q0 -19 -6.5 -35t-20.5 -29q-13 -14 -29.5 -20.5t-34.5 -6.5h-842q-18 0 -34.5 6.5t-29.5 20.5q-14 13 -20.5 29t-6.5 35v622q0 19 6.5 35t20.5 29q13 14 29.5 20.5
t34.5 6.5h842q18 0 34.5 -6.5t29.5 -20.5q14 -13 20.5 -29t6.5 -35v0v0z" />
    <glyph glyph-name="uniE622" unicode="&#xe622;" 
d="M576 38q0 14 -4.5 25t-14.5 21q-9 9 -20.5 13.5t-24.5 4.5t-24.5 -4.5t-20.5 -13.5q-10 -10 -14.5 -21t-4.5 -25q0 -13 4.5 -24t14.5 -21q9 -9 20.5 -14t24.5 -5t24.5 5t20.5 14q10 10 14.5 21t4.5 24v0zM742 166v564q0 5 -1.5 9.5t-5.5 8.5q-4 3 -8.5 5t-9.5 2h-410
q-5 0 -9.5 -2t-8.5 -5q-4 -4 -5.5 -8.5t-1.5 -9.5v-564q0 -5 1.5 -9.5t5.5 -8.5q4 -3 8.5 -5t9.5 -2h410q5 0 9.5 2t8.5 5q4 4 5.5 8.5t1.5 9.5v0zM589 845q0 6 -3.5 9.5t-9.5 3.5h-128q-6 0 -9.5 -3.5t-3.5 -9.5q0 -7 3.5 -10t9.5 -3h128q6 0 9.5 3t3.5 10v0zM819 858v-820
q0 -20 -7.5 -38t-22.5 -34q-15 -15 -33 -22.5t-39 -7.5h-410q-21 0 -39 7.5t-33 22.5q-15 16 -22.5 34t-7.5 38v820q0 20 7.5 38t22.5 34q15 15 33 22.5t39 7.5h410q21 0 39 -7.5t33 -22.5q15 -16 22.5 -34t7.5 -38v0v0z" />
    <glyph glyph-name="uniE623" unicode="&#xe623;" 
d="M240 368q0 16 -6 30.5t-17 25.5q-12 12 -26 18t-31 6q-16 0 -30.5 -6t-25.5 -17q-12 -12 -18 -26t-6 -31q0 -16 6 -30.5t17 -25.5q12 -12 26 -18t31 -6q16 0 30.5 6t25.5 17q12 12 18 26t6 31v0zM258 528h508l-44 178q-1 3 -2.5 5t-4.5 4q-3 3 -6 4t-5 1h-384
q-2 0 -4.5 -1t-5.5 -4q-3 -2 -5 -4t-2 -4l-45 -179v0zM944 368q0 16 -6 30.5t-17 25.5q-12 12 -26 18t-31 6q-16 0 -30.5 -6t-25.5 -17q-12 -12 -18 -26t-6 -31q0 -16 6 -30.5t17 -25.5q12 -12 26 -18t31 -6q16 0 30.5 6t25.5 17q12 12 18 26t6 31v0zM1024 416v-192
q0 -4 -1 -6.5t-3 -4.5q-3 -3 -5.5 -4t-6.5 -1h-48v-64q0 -20 -7 -37t-21 -31t-31 -21t-37 -7t-37 7t-31 21t-21 31t-7 37v64h-512v-64q0 -20 -7 -37t-21 -31t-31 -21t-37 -7t-37 7t-31 21t-21 31t-7 37v64h-48q-4 0 -6.5 1t-4.5 3q-3 3 -4 5.5t-1 6.5v192q0 23 8 43t25 36
q16 17 36 25t43 8h14l52 209q6 24 19 43.5t33 35.5q21 16 43 24t47 8h384q25 0 47 -8t42 -24q21 -16 34 -35.5t18 -42.5l53 -210h14q23 0 43 -8t36 -25q17 -16 25 -36t8 -43v0v0z" />
    <glyph glyph-name="uniE624" unicode="&#xe624;" 
d="M569 448l443 443q12 12 12 29t-12 28q-11 12 -28 12t-28 -12l-444 -443l-443 443q-12 12 -29 12t-28 -12q-12 -12 -12 -28.5t12 -28.5l443 -443l-443 -443q-6 -6 -9 -13.5t-3 -15.5t3 -15t9 -13q12 -12 28.5 -12t28.5 12l443 443l443 -443q6 -6 13.5 -9t15.5 -3t15 3
t13 9q12 11 12 28t-12 28l-443 444v0z" />
    <glyph glyph-name="uniE625" unicode="&#xe625;" 
d="M512 -64q-50 0 -98.5 9.5t-94.5 27.5q-48 20 -90.5 48t-78.5 65q-37 37 -65.5 79.5t-47.5 90.5q-19 46 -28.5 95t-9.5 99t9.5 98t28.5 94q19 47 47.5 89.5t65.5 78.5q37 37 79.5 65t90.5 47q46 19 94.5 28.5t97.5 9.5q50 0 98.5 -9.5t94.5 -28.5q48 -19 90.5 -47
t79.5 -65v0q37 -37 65 -79.5t48 -90.5q18 -46 27.5 -94t9.5 -98t-9.5 -98.5t-28.5 -93.5q-19 -48 -47.5 -90.5t-65.5 -79.5t-79.5 -65t-90.5 -48q-46 -18 -94.5 -27.5t-97.5 -9.5v0zM512 878q-43 0 -84.5 -8t-80 -24t-74 -39.5t-66.5 -54.5q-30 -30 -53.5 -65t-39.5 -73.5
t-24.5 -79.5t-8.5 -84q0 -44 8 -85.5t24 -80.5t40 -74.5t54 -65.5q31 -31 66 -54.5t73.5 -39.5t80 -24t85.5 -8q43 0 84.5 8t80 24t73.5 39.5t66 54.5q64 64 96 143t32 161t-31.5 161t-95.5 143q-30 31 -65.5 54.5t-74.5 39.5t-80.5 24t-84.5 8v0zM590 443l133 133
q16 16 16 39t-16 39t-39 16t-39 -16l-133 -133l-133 133q-16 16 -39 16t-39 -16t-16 -39t16 -39l133 -133l-133 -133q-16 -16 -16 -39t16 -39q8 -8 18 -12t21 -4t21 4t18 12l133 133l133 -133q8 -8 18 -12t21 -4t21 4t18 12q16 16 16 39t-16 39l-133 133v0z" />
    <glyph glyph-name="uniE900" unicode="&#xe900;" 
d="M0 244h154l16 -271l220 271h634v679h-1024v-679v0z" />
    <glyph glyph-name="uniE901" unicode="&#xe901;" 
d="M1008 226q-55 35 -92.5 60t-63.5 41q-11 9 -20.5 14.5t-18.5 10.5q-7 4 -15.5 6.5t-15.5 2.5q-16 0 -26.5 -7.5l-10.5 -7.5l-32.5 -38t-46.5 -54q-9 -9 -22.5 -9.5t-29.5 6.5q-43 22 -83 50t-77.5 62.5t-73.5 75t-69 87.5q-2 5 -4.5 7.5l-4.5 4.5q-5 7 -5.5 14.5
t-0.5 10.5q4 7 28 39t61 62q9 4 12 13.5t3 13.5q2 9 0 18t-6 16q-64 89 -110.5 140.5t-48.5 51.5l-10 6t-24 6q-9 0 -18 -2.5t-15 -9.5q-108 -91 -135 -155.5l-27 -64.5q0 -4 -5 -29.5t5 -43.5q66 -197 183.5 -323t231.5 -198.5t199 -99.5t86 -27l19 -5t42 -5q14 0 25 2.5
t18 7.5q47 23 84.5 55t63.5 61.5t41 51.5t16 24v3q9 7 9 24.5t-16 30.5v0v0z" />
    <glyph glyph-name="uniE902" unicode="&#xe902;" 
d="M513 86q-33 0 -56.5 23.5t-23.5 56.5v283q0 33 23.5 56.5t56.5 23.5t56.5 -23.5t23.5 -56.5v-283q0 -33 -23.5 -56.5t-56.5 -23.5v0zM513 589q-15 0 -30 6.5t-26 17.5t-17.5 26t-6.5 30q0 16 6.5 31t17.5 26t25.5 17t30.5 6t31 -6t26 -17t17 -26t6 -31q0 -15 -6 -30
t-17 -26t-26 -17.5t-31 -6.5v0z" />
    <glyph glyph-name="uniE903" unicode="&#xe903;" 
d="M565 527q-6 5 -13 9t-16 6q-7 1 -20 2t-32 1h-29v-208h48q13 0 22.5 1t15.5 2q8 2 14 5.5t11 7.5q5 5 9.5 12.5t7.5 17.5q3 11 4.5 25.5t1.5 32.5t-1.5 32t-4.5 23q-3 10 -7.5 17.5t-10.5 13.5v0zM240 542q-6 2 -17.5 2.5t-28.5 0.5h-30v-89h34q19 0 31.5 1t18.5 4
q7 2 11.5 6t8.5 9t5.5 11t1.5 13q0 9 -2.5 16t-7.5 13q-5 5 -11.5 8.5t-13.5 4.5v0zM903 470v-53h-131v-133h-63v314h215v-53h-152v-75h131v0zM645 371q-6 -17 -14.5 -30.5t-18.5 -24.5q-9 -8 -20 -14.5t-25 -10.5q-10 -3 -24 -5t-32 -2h-119v314h116q19 0 34 -1.5t25 -4.5
q14 -4 26 -11.5t22 -17.5q9 -11 16.5 -23.5t13.5 -27.5q5 -15 7.5 -33.5t2.5 -40.5q0 -19 -2.5 -36t-7.5 -31v0zM330 453q-5 -10 -12 -18t-15 -13q-8 -6 -16 -9.5t-16 -5.5q-12 -2 -28.5 -3.5t-37.5 -1.5h-41v-118h-64v314h102q29 0 47.5 -1.5t27.5 -3.5q14 -4 25 -11.5
t20 -19.5t13.5 -27t4.5 -34q0 -14 -2.5 -26t-7.5 -22v0zM512 958q-106 0 -198.5 -40t-162 -109.5t-109.5 -162t-40 -198.5t40 -198.5t109.5 -162t162 -109.5t198.5 -40t198.5 40t162 109.5t109.5 162t40 198.5t-40 198.5t-109.5 162t-162 109.5t-198.5 40v0z" />
  </font>
</defs>
</svg>
